<svg width="200" height="43" viewBox="0 0 200 43" fill="none" xmlns="http://www.w3.org/2000/svg">
<path d="M27.3999 32.5249L23.0974 39.8591L0.990234 1.77692H9.51039C15.4547 12.0168 21.4272 22.2849 27.3999 32.5249Z" fill="#ECE9F7"/>
<path d="M34.9583 39.8591L12.7097 1.77689C15.5686 1.77689 18.3993 1.77689 21.2582 1.77689C27.2024 12.0168 33.1751 22.2848 39.1477 32.5248L34.9583 39.8591Z" fill="#ECE9F7"/>
<path d="M34.9578 39.8591L57.065 1.77689C54.2061 1.77689 51.3471 1.77689 48.4882 1.77689C42.5723 12.0168 36.6846 22.2848 30.7686 32.5248L34.9578 39.8591Z" fill="#ECE9F7"/>
<path d="M33.5996 19.2947L44.0444 1.77689H35.5527L29.4385 11.9603L33.5996 19.2947Z" fill="#ECE9F7"/>
<path d="M52.6207 1.77692H36.2881V9.13948H52.6207V1.77692Z" fill="#ECE9F7"/>
<path d="M68.6 32.8125H72.1L75.75 22.0625L79.425 32.8125H82.9L88.5 15.5375V15.3125H84.325L80.975 26.8375L77.225 15.8125H74.3L70.525 26.8375L67.175 15.3125H63V15.5375L68.6 32.8125ZM92.3892 18.9125C93.6642 18.9125 94.6392 17.9625 94.6392 16.7375C94.6392 15.5375 93.6642 14.5875 92.3892 14.5875C91.1392 14.5875 90.1642 15.5375 90.1642 16.7375C90.1642 17.9625 91.1392 18.9125 92.3892 18.9125ZM94.2392 20.5625H90.5642V32.8125H94.2392V20.5625ZM102.626 33.1375C106.401 33.1375 108.801 31.7625 108.801 28.9125C108.801 26.1375 106.551 25.5375 103.276 25.0875C101.576 24.8625 100.751 24.7375 100.751 24.1875C100.751 23.6625 101.476 23.2375 102.826 23.2375C103.976 23.2375 105.001 23.6125 105.351 24.5875L108.401 23.2625C107.551 21.6125 105.851 20.2375 102.726 20.2375C99.1508 20.2375 97.0508 21.8625 97.0508 24.4375C97.0508 26.9875 99.0508 27.8625 102.126 28.2625C103.951 28.5125 105.026 28.4625 105.026 29.1625C105.026 29.7625 104.226 30.0625 102.701 30.0625C100.951 30.0625 99.4008 29.6125 98.0758 28.6375L96.7258 31.4875C98.4008 32.6375 100.326 33.1375 102.626 33.1375ZM118.844 20.2375C117.094 20.2375 115.844 20.8625 114.869 22.0875V15.3125H111.194V32.8125H114.869V25.1125C115.719 24.0375 116.644 23.5125 117.744 23.5125C118.969 23.5125 119.769 24.2375 119.769 25.3875V32.8125H123.444V25.0625C123.444 22.1375 121.744 20.2375 118.844 20.2375ZM138.107 32.8125H141.607L145.257 22.0625L148.932 32.8125H152.407L158.006 15.5375V15.3125H153.832L150.482 26.8375L146.732 15.8125H143.807L140.032 26.8375L136.682 15.3125H132.507V15.5375L138.107 32.8125ZM164.736 33.1375C169.086 33.1375 171.686 30.2125 171.686 26.6875C171.686 23.1375 169.086 20.2375 164.736 20.2375C160.386 20.2375 157.811 23.1375 157.811 26.6875C157.811 30.2125 160.386 33.1375 164.736 33.1375ZM164.736 29.9125C162.811 29.9125 161.586 28.5875 161.586 26.6875C161.586 24.7625 162.811 23.4625 164.736 23.4625C166.661 23.4625 167.911 24.7625 167.911 26.6875C167.911 28.5875 166.661 29.9125 164.736 29.9125ZM177.858 22.7625V20.5625H174.183V32.8125H177.858V26.3625C178.583 24.8875 180.458 23.9125 182.408 24.0625V20.2625C180.483 20.2375 178.883 21.0125 177.858 22.7625ZM192.661 25.6625L197.086 20.7125V20.5625H192.736L188.161 26.0125V15.3125H184.486V32.8125H188.161V30.6625L190.259 28.3125L193.236 32.8125H197.161V32.6375L192.661 25.6625Z" fill="#ECE9F7"/>
</svg>
